<svg width="20" height="21" viewBox="0 0 20 21" fill="none" xmlns="http://www.w3.org/2000/svg">
<path fill-rule="evenodd" clip-rule="evenodd" d="M6.36547 6.4941C7.32941 5.51069 8.63679 4.95821 10 4.95821C11.3632 4.95821 12.6706 5.51069 13.6345 6.4941C14.5985 7.47752 15.14 8.81131 15.14 10.2021C15.14 11.5928 14.5985 12.9266 13.6345 13.91C12.6706 14.8935 11.3632 15.4459 10 15.4459C8.63679 15.4459 7.32941 14.8935 6.36547 13.91C5.40154 12.9266 4.86 11.5928 4.86 10.2021C4.86 8.81131 5.40154 7.47752 6.36547 6.4941ZM8.72311 13.347C9.12794 13.5181 9.56182 13.6062 10 13.6062C10.8849 13.6062 11.7336 13.2475 12.3594 12.6091C12.9851 11.9707 13.3367 11.1049 13.3367 10.2021C13.3367 9.29925 12.9851 8.43341 12.3594 7.79502C11.7336 7.15663 10.8849 6.79798 10 6.79798C9.56182 6.79798 9.12794 6.88603 8.72311 7.0571C8.31829 7.22818 7.95046 7.47892 7.64062 7.79502C7.33078 8.11112 7.08501 8.48638 6.91732 8.89938C6.74964 9.31239 6.66333 9.75504 6.66333 10.2021C6.66333 10.6491 6.74964 11.0918 6.91732 11.5048C7.08501 11.9178 7.33078 12.293 7.64062 12.6091C7.95046 12.9252 8.31829 13.176 8.72311 13.347Z" fill="white"/>
<path d="M16.2795 5.73949C16.5073 5.50702 16.6353 5.19174 16.6353 4.86299C16.6353 4.53424 16.5073 4.21896 16.2795 3.9865C16.0516 3.75403 15.7426 3.62344 15.4203 3.62344C15.0981 3.62344 14.7891 3.75403 14.5612 3.9865C14.3333 4.21896 14.2053 4.53424 14.2053 4.86299C14.2053 5.19174 14.3333 5.50702 14.5612 5.73949C14.7891 5.97195 15.0981 6.10254 15.4203 6.10254C15.7426 6.10254 16.0516 5.97195 16.2795 5.73949Z" fill="white"/>
<path fill-rule="evenodd" clip-rule="evenodd" d="M5.87733 0.0612123C6.944 0.0115624 7.284 0 10 0C12.7167 0 13.056 0.0122424 14.122 0.0612123C15.1867 0.110863 15.9147 0.284298 16.5507 0.535269C17.2177 0.791584 17.8219 1.19311 18.3213 1.71191C18.83 2.22155 19.2236 2.83826 19.4747 3.51903C19.722 4.16789 19.8913 4.90992 19.94 5.9961C19.9887 7.08432 20 7.43119 20 10.2021C20 12.973 19.9887 13.3198 19.94 14.408C19.8913 15.4942 19.722 16.2363 19.4753 16.8851C19.2241 17.5656 18.8305 18.182 18.322 18.6916C17.822 19.2112 17.2173 19.6125 16.5507 19.8682C15.9147 20.1205 15.1873 20.2933 14.1227 20.3429C13.056 20.3926 12.716 20.4041 10 20.4041C7.284 20.4041 6.944 20.3926 5.87733 20.3429C4.81267 20.2933 4.08533 20.1205 3.44933 19.8689C2.78234 19.6125 2.1781 19.211 1.67867 18.6922C1.16933 18.1821 0.776 17.5652 0.525333 16.8851C0.278 16.2363 0.108667 15.4942 0.0599999 14.408C0.0113334 13.3198 0 12.9736 0 10.2021C0 7.43051 0.0119999 7.08432 0.0599999 5.99678C0.108667 4.9106 0.278667 4.16789 0.524667 3.51903C0.775905 2.83855 1.16948 2.2221 1.678 1.71259C2.178 1.19296 2.78267 0.791681 3.44933 0.535949C4.08533 0.283618 4.81267 0.110863 5.87733 0.0612123ZM14.0413 1.89759C12.9867 1.84862 12.67 1.83841 10 1.83841C7.33 1.83841 7.01333 1.84862 5.95867 1.89759C4.984 1.94315 4.45467 2.10911 4.102 2.24922C3.66761 2.41243 3.27463 2.67297 2.952 3.01165C2.60267 3.36872 2.38533 3.70879 2.20467 4.18489C2.06667 4.54468 1.90467 5.08471 1.86 6.07907C1.812 7.15505 1.802 7.47812 1.802 10.2021C1.802 12.926 1.812 13.2491 1.86 14.3251C1.90467 15.3194 2.06733 15.8595 2.20467 16.2193C2.36475 16.6624 2.62012 17.0633 2.952 17.3925C3.27467 17.7311 3.66764 17.9916 4.102 18.1549C4.45467 18.2957 4.984 18.461 5.95867 18.5066C7.01333 18.5555 7.32933 18.5657 10 18.5657C12.6707 18.5657 12.9867 18.5555 14.0413 18.5066C15.016 18.461 15.5453 18.295 15.898 18.1549C16.3324 17.9917 16.7254 17.7312 17.048 17.3925C17.3799 17.0633 17.6353 16.6624 17.7953 16.2193C17.9333 15.8595 18.0953 15.3194 18.14 14.3251C18.188 13.2491 18.198 12.926 18.198 10.2021C18.198 7.47812 18.188 7.15505 18.14 6.07907C18.0953 5.08471 17.9327 4.54468 17.7953 4.18489C17.6147 3.70879 17.398 3.36872 17.048 3.01165C16.698 2.65526 16.3647 2.43353 15.898 2.24922C15.5453 2.10843 15.016 1.94315 14.0413 1.89759Z" fill="white"/>
</svg>
