<svg width="20" height="21" viewBox="0 0 20 21" fill="none" xmlns="http://www.w3.org/2000/svg">
<path d="M20 1.5003V18.9038C20 19.3017 19.8451 19.6834 19.5693 19.9647C19.2935 20.2461 18.9194 20.4041 18.5294 20.4041H1.47059C1.08056 20.4041 0.706514 20.2461 0.430725 19.9647C0.154937 19.6834 0 19.3017 0 18.9038L0 1.5003C0 1.1024 0.154937 0.720791 0.430725 0.439429C0.706514 0.158067 1.08056 0 1.47059 0L18.5294 0C18.9194 0 19.2935 0.158067 19.5693 0.439429C19.8451 0.720791 20 1.1024 20 1.5003ZM5.88235 7.80158H2.94118V17.4035H5.88235V7.80158ZM6.14706 4.50091C6.14861 4.27394 6.10632 4.04888 6.02261 3.83858C5.93891 3.62828 5.81542 3.43687 5.65919 3.27526C5.50297 3.11365 5.31708 2.98502 5.11213 2.89671C4.90718 2.80839 4.68718 2.76213 4.46471 2.76056H4.41177C3.95934 2.76056 3.52544 2.94392 3.20552 3.2703C2.88561 3.59668 2.70588 4.03934 2.70588 4.50091C2.70588 4.96248 2.88561 5.40515 3.20552 5.73153C3.52544 6.05791 3.95934 6.24127 4.41177 6.24127C4.63426 6.24685 4.85565 6.20765 5.06328 6.12592C5.27092 6.04418 5.46074 5.92151 5.62189 5.7649C5.78304 5.6083 5.91237 5.42083 6.00248 5.21322C6.09259 5.00561 6.14172 4.78192 6.14706 4.55492V4.50091ZM17.0588 11.5703C17.0588 8.68376 15.2588 7.56153 13.4706 7.56153C12.8851 7.53162 12.3021 7.65885 11.7799 7.93053C11.2576 8.2022 10.8143 8.60883 10.4941 9.10985H10.4118V7.80158H7.64706V17.4035H10.5882V12.2965C10.5457 11.7734 10.7072 11.2544 11.0376 10.8521C11.3681 10.4499 11.8407 10.1969 12.3529 10.1481H12.4647C13.4 10.1481 14.0941 10.7482 14.0941 12.2605V17.4035H17.0353L17.0588 11.5703Z" fill="white"/>
</svg>
