<svg width="20" height="21" viewBox="0 0 20 21" fill="none" xmlns="http://www.w3.org/2000/svg">
<path fill-rule="evenodd" clip-rule="evenodd" d="M20 10.2021C20 15.8365 15.5228 20.4041 10 20.4041C4.47715 20.4041 0 15.8365 0 10.2021C0 4.56762 4.47715 0 10 0C15.5228 0 20 4.56762 20 10.2021ZM10.3583 7.53163C9.38569 7.94436 7.44176 8.79861 4.52656 10.0944C4.05318 10.2864 3.8052 10.4743 3.78262 10.658C3.74447 10.9685 4.12558 11.0908 4.64454 11.2573C4.71513 11.2799 4.78828 11.3034 4.86326 11.3282C5.37385 11.4976 6.06067 11.6956 6.41772 11.7035C6.7416 11.7107 7.10309 11.5744 7.50218 11.2948C10.2259 9.41908 11.632 8.47097 11.7202 8.45053C11.7825 8.43611 11.8688 8.41798 11.9273 8.471C11.9858 8.52402 11.98 8.62443 11.9738 8.65137C11.9361 8.81557 10.4401 10.2345 9.66592 10.9688C9.42457 11.1977 9.25338 11.36 9.21838 11.3971C9.13998 11.4802 9.06009 11.5588 8.9833 11.6343C8.50895 12.1008 8.15324 12.4506 9.00299 13.0219C9.41134 13.2965 9.7381 13.5235 10.0641 13.75C10.4201 13.9973 10.7752 14.244 11.2347 14.5513C11.3517 14.6296 11.4635 14.7109 11.5724 14.7901C11.9867 15.0914 12.3589 15.3621 12.8188 15.319C13.086 15.2939 13.362 15.0375 13.5022 14.273C13.8335 12.4662 14.4847 8.55143 14.6352 6.93825C14.6483 6.79691 14.6318 6.61603 14.6184 6.53662C14.6051 6.45722 14.5773 6.34409 14.4761 6.26034C14.3563 6.16116 14.1713 6.14024 14.0886 6.14173C13.7125 6.14849 13.1354 6.35319 10.3583 7.53163Z" fill="white"/>
</svg>
