<svg width="20" height="21" viewBox="0 0 20 21" fill="none" xmlns="http://www.w3.org/2000/svg">
<path d="M10.0419 0C4.5529 0 0.0858064 4.53584 0.083871 10.1103C0.0825806 11.8929 0.541936 13.6327 1.4129 15.165L0 20.4041L5.27935 18.9983C6.74788 19.8081 8.38076 20.2305 10.0381 20.2293H10.0419C15.531 20.2293 19.9981 15.6928 20 10.1184C20.0013 7.41826 18.9665 4.87659 17.0858 2.96608C15.2058 1.05489 12.7058 0.000680138 10.0419 0ZM10.0419 18.5215H10.0387C8.55355 18.5215 7.09677 18.1162 5.82581 17.3503L5.52258 17.168L2.39097 18.0019L3.2271 14.9005L3.03032 14.5828C2.20381 13.2539 1.76383 11.6993 1.76452 10.1103C1.76645 5.47647 5.48 1.70783 10.0452 1.70783C12.2555 1.70851 14.3335 2.58384 15.8968 4.17197C17.46 5.76009 18.32 7.87192 18.3187 10.1177C18.3168 14.7515 14.6039 18.5215 10.0413 18.5215H10.0419ZM14.5819 12.2268C14.3329 12.101 13.1097 11.4896 12.8813 11.4046C12.6535 11.3209 12.4877 11.2774 12.3219 11.5304C12.1568 11.7834 11.6794 12.3527 11.5348 12.5207C11.389 12.6893 11.2439 12.7097 10.9948 12.5839C10.7458 12.4574 9.94387 12.1908 8.99419 11.3297C8.25419 10.6605 7.75484 9.83344 7.60968 9.57974C7.46452 9.32741 7.59419 9.1907 7.71871 9.06488C7.83032 8.95266 7.96774 8.77038 8.09161 8.62279C8.21548 8.4752 8.25677 8.36978 8.34064 8.2011C8.42323 8.03311 8.38194 7.88484 8.31936 7.75901C8.25677 7.63183 7.76 6.38854 7.55161 5.88319C7.35032 5.39077 7.14516 5.45675 6.99226 5.44859C6.8471 5.44178 6.68193 5.43974 6.51484 5.43974C6.35032 5.43974 6.08 5.503 5.85161 5.75601C5.62387 6.00902 4.98064 6.61978 4.98064 7.86308C4.98064 9.10705 5.87226 10.3082 5.99677 10.4768C6.12129 10.6448 7.75161 13.1974 10.2477 14.2924C10.8413 14.5516 11.3045 14.7073 11.6665 14.8243C12.2626 15.0168 12.8052 14.9889 13.2335 14.9243C13.711 14.8515 14.7058 14.3135 14.9123 13.7238C15.12 13.1341 15.12 12.6281 15.0581 12.5227C14.9974 12.4173 14.831 12.354 14.5819 12.2268Z" fill="white"/>
</svg>
